<?xml version="1.0" encoding="UTF-8"?>
<svg version="1.1" xmlns="http://www.w3.org/2000/svg" width="512" height="512">
<path d="M0 0 C6.51889181 1.44247819 12.74877711 2.28841211 19.43359375 2.55859375 C22 3 22 3 23.84765625 4.16015625 C25.58372099 6.93197488 25.4146581 8.78639971 25 12 C23.46875 14.7734375 23.46875 14.7734375 21.5 17.375 C20.8503125 18.24898437 20.200625 19.12296875 19.53125 20.0234375 C19.0259375 20.67570312 18.520625 21.32796875 18 22 C18.721875 22.26167969 19.44375 22.52335937 20.1875 22.79296875 C32.37506263 28.02346438 42.47616311 39.47360848 50.8125 49.5 C55.12834369 54.55995467 60.40177234 57.27802284 66.375 60 C69.06825185 61.32272132 69.92472262 61.89126601 71.6875 64.4375 C72.11540197 67.94629616 71.03602764 69.15389327 69 72 C61.49530129 78.11863955 52.7859423 82.29392406 43 82 C43.433125 82.94359375 43.433125 82.94359375 43.875 83.90625 C46.32871785 89.56343281 47.6612249 93.82856762 47 100 C45 102 45 102 42.66162109 102.22705078 C41.23197021 102.21134033 41.23197021 102.21134033 39.7734375 102.1953125 C38.7421875 102.18886719 37.7109375 102.18242188 36.6484375 102.17578125 C35.56820313 102.15902344 34.48796875 102.14226562 33.375 102.125 C32.28703125 102.11597656 31.1990625 102.10695313 30.078125 102.09765625 C27.38519848 102.07403409 24.69270745 102.04109556 22 102 C22.03480469 103.17304687 22.06960938 104.34609375 22.10546875 105.5546875 C22.36753451 119.41430008 21.57254493 133.12222264 20.5625 146.9375 C20.46127335 148.33195343 20.46127335 148.33195343 20.35800171 149.75457764 C20.16051899 152.44997473 19.95857281 155.14498322 19.75390625 157.83984375 C19.66319351 159.0466555 19.66319351 159.0466555 19.57064819 160.27784729 C19.18500711 165.20832191 18.64785157 170.09693361 18 175 C23.49785336 176.5715752 28.9971322 178.13802074 34.49780273 179.69970703 C36.36929875 180.23182291 38.24039572 180.76534434 40.11108398 181.30029297 C42.79828155 182.0684709 45.48686835 182.83160134 48.17578125 183.59375 C49.01337479 183.83436157 49.85096832 184.07497314 50.71394348 184.32287598 C51.49452621 184.54310425 52.27510895 184.76333252 53.0793457 184.99023438 C53.76551468 185.18564819 54.45168365 185.38106201 55.15864563 185.58239746 C57.17293133 186.11058716 57.17293133 186.11058716 60 186 C60.26103516 185.3702124 60.52207031 184.7404248 60.79101562 184.09155273 C62.00546663 181.19712891 63.25231871 178.31774673 64.5 175.4375 C65.11488281 173.9515332 65.11488281 173.9515332 65.7421875 172.43554688 C68.65974699 165.78262712 71.88042209 161.05898614 78 157 C85.30034794 154.56655069 92.38325585 155.63724408 99.3203125 158.63671875 C101.68823127 160.5585877 101.62637206 162.00312718 102 165 C101.76220703 167.92260742 101.76220703 167.92260742 101.2578125 171.10546875 C101.07863281 172.25337891 100.89945312 173.40128906 100.71484375 174.58398438 C100.42287109 176.36772461 100.42287109 176.36772461 100.125 178.1875 C99.93808594 179.38826172 99.75117188 180.58902344 99.55859375 181.82617188 C98.14821171 190.70357659 98.14821171 190.70357659 97 193 C98.1653125 192.95875 99.330625 192.9175 100.53125 192.875 C114.67468027 192.89985664 132.55307113 201.56688382 143.44921875 210.43359375 C146.9360029 213.95550923 149.89486781 217.69037723 150.125 222.74609375 C150.08375 223.48988281 150.0425 224.23367187 150 225 C150.6084375 225.14695313 151.216875 225.29390625 151.84375 225.4453125 C176.95791544 231.87158424 176.95791544 231.87158424 182.8671875 240.0703125 C186.40890042 246.10343726 186.46479325 251.26408945 185 258 C182.75558528 264.02386955 178.56986472 267.81969553 173.18359375 271.109375 C165.91580108 274.07369831 157.71129909 272.21269265 150.6875 269.5 C148.78229725 268.68831599 146.88263133 267.86274431 145 267 C145.13277344 267.93457031 145.26554687 268.86914062 145.40234375 269.83203125 C148.06396011 289.28672122 148.20433839 308.76473601 148.1875 328.375 C148.18709213 330.16298508 148.18709213 330.16298508 148.18667603 331.98709106 C148.1680676 349.73432294 147.91524488 367.34002353 146 385 C145.88221191 386.08796875 145.76442383 387.1759375 145.64306641 388.296875 C143.28305298 409.32413188 143.28305298 409.32413188 141 414 C138.76171875 415.5 138.76171875 415.5 136 416 C133.01953125 415.3125 133.01953125 415.3125 129.8125 414 C128.76707031 413.5875 127.72164063 413.175 126.64453125 412.75 C121.86079878 410.60475372 117.44874696 407.7565616 113 405 C113.13051758 405.71615479 113.26103516 406.43230957 113.39550781 407.17016602 C116.00804756 421.61805989 118.40067589 436.06789481 120.3125 450.625 C120.48362305 451.89674072 120.65474609 453.16848145 120.83105469 454.47875977 C123.30717809 473.90551799 123.30717809 473.90551799 120.89257812 477.77441406 C118.0758033 479.59848651 115.7585271 479.38896242 112.42578125 479.3984375 C111.11802734 479.40230469 109.81027344 479.40617187 108.46289062 479.41015625 C107.78073486 479.40387207 107.0985791 479.39758789 106.39575195 479.39111328 C104.33671346 479.37518728 102.27967709 479.39089273 100.22070312 479.41015625 C84.36349453 479.36349453 84.36349453 479.36349453 80 475 C78.31290653 474.87700834 76.62079097 474.82214742 74.92944336 474.79467773 C73.84839828 474.77473251 72.76735321 474.75478729 71.65354919 474.73423767 C70.4775264 474.71752518 69.3015036 474.70081268 68.08984375 474.68359375 C66.29408653 474.6524221 66.29408653 474.6524221 64.46205139 474.62062073 C60.62059513 474.55499721 56.77906799 474.49618097 52.9375 474.4375 C50.34048733 474.39432695 47.74348194 474.35071307 45.14648438 474.30664062 C38.76439883 474.19930284 32.38224207 474.09756069 26 474 C25.71125 474.639375 25.4225 475.27875 25.125 475.9375 C24 478 24 478 22 479 C20.06910932 479.09808334 18.13477866 479.1307068 16.20140076 479.13371277 C14.96636307 479.13797775 13.73132538 479.14224274 12.4588623 479.14663696 C11.0825195 479.14628741 9.70617672 479.14582585 8.32983398 479.14526367 C6.88603122 479.14825464 5.44222925 479.15165703 3.99842834 479.15544128 C0.06831149 479.16429623 -3.8617836 479.16662015 -7.79190946 479.16725707 C-11.07428243 479.16820589 -14.35665032 479.17188426 -17.63902134 479.17542917 C-25.38898884 479.18358096 -33.13894472 479.18601291 -40.88891602 479.18530273 C-48.87313832 479.18470314 -56.8572928 479.19522955 -64.84149796 479.2110464 C-71.70022415 479.22414763 -78.55892826 479.22948548 -85.41766685 479.22884732 C-89.51198992 479.2285929 -93.60625286 479.23141252 -97.70056343 479.24202538 C-101.55748121 479.25174873 -105.41428195 479.25175664 -109.27120399 479.24450874 C-110.68163983 479.24346784 -112.09208311 479.24579623 -113.50250626 479.2518692 C-130.45994504 479.32011202 -130.45994504 479.32011202 -137.05985165 475.9473505 C-139.82528371 474.59702415 -142.19619514 474.73042326 -145.26220703 474.70947266 C-146.53097687 474.69671295 -147.7997467 474.68395325 -149.10696411 474.67080688 C-150.49057869 474.66774783 -151.87419531 474.66552082 -153.2578125 474.6640625 C-154.68545666 474.65762974 -156.11309952 474.65090103 -157.54074097 474.64389038 C-160.53500417 474.63191979 -163.52915206 474.62820897 -166.5234375 474.62939453 C-170.33629892 474.62959691 -174.14840813 474.60237954 -177.961092 474.56785011 C-180.91247865 474.54545888 -183.86368837 474.54156081 -186.81515121 474.54261398 C-188.21920216 474.5402731 -189.62325912 474.53153598 -191.02722549 474.51594925 C-198.68539431 474.43893787 -204.52676023 474.88185126 -211.48001099 478.09240723 C-216.56987053 479.92555797 -221.95693858 479.5468922 -227.3046875 479.49609375 C-228.54622589 479.49754898 -229.78776428 479.49900421 -231.06692505 479.50050354 C-233.67387251 479.49885224 -236.28083051 479.48737795 -238.88769531 479.46655273 C-241.5575214 479.44709956 -244.22490324 479.43688153 -246.89453125 479.44604492 C-250.76065053 479.45861266 -254.62609291 479.44999246 -258.4921875 479.43359375 C-259.68697723 479.43652939 -260.88176697 479.43946503 -262.11276245 479.44248962 C-263.22136627 479.42980545 -264.32997009 479.41712128 -265.47216797 479.40405273 C-266.44572235 479.39864975 -267.41927673 479.39324677 -268.42233276 479.38768005 C-271.45193663 478.93202892 -272.84222305 478.15705029 -275 476 C-277.22798288 455.60157894 -263.05911746 431.22394154 -250.91625977 415.75561523 C-243.2729485 406.26542331 -234.88919257 397.75071165 -225.84765625 389.59375 C-223.49612372 387.45188773 -221.22417601 385.27241116 -219 383 C-220.29123683 379.26832557 -221.74699671 376.9344173 -224.5 374.125 C-235.91624143 361.61659107 -251.50542701 340.23764649 -253.4375 323.125 C-252.95843784 319.70312745 -252.63662138 319.04700351 -250 317 C-247.07598196 316.64136673 -244.24596195 316.41005525 -241.3125 316.25 C-233.33751607 315.57887684 -229.3236442 314.15254494 -224 308 C-222.35021717 306.4814499 -220.68244812 304.98227734 -219 303.5 C-218.154375 302.736875 -217.30875 301.97375 -216.4375 301.1875 C-213.66851101 298.70250988 -210.86802697 296.25602349 -208.0625 293.8125 C-205.69035571 291.72788836 -203.34443935 289.61571356 -201 287.5 C-197.38323655 284.23609152 -193.73610392 281.01209051 -190.0625 277.8125 C-187.69035571 275.72788836 -185.34443935 273.61571356 -183 271.5 C-176.41977061 265.56469355 -169.73788209 259.75527429 -163 254 C-163.62648437 253.74605469 -164.25296875 253.49210937 -164.8984375 253.23046875 C-165.71570313 252.88628906 -166.53296875 252.54210937 -167.375 252.1875 C-168.18710938 251.85105469 -168.99921875 251.51460937 -169.8359375 251.16796875 C-172 250 -172 250 -174 247 C-172.98406872 229.57677857 -157.94470743 212.46708944 -145.63964844 201.35888672 C-140.6096416 197.19018242 -134.82732361 193.91366181 -129 191 C-135.65037346 188.36727794 -142.39685815 186.38574934 -149.28515625 184.47265625 C-151.15561814 183.94860023 -153.02607962 183.42454274 -154.89652634 182.90043259 C-156.89977536 182.33978662 -158.90349245 181.78084074 -160.90731812 181.22225952 C-165.1127506 180.04945863 -169.31588335 178.86855114 -173.51879883 177.68676758 C-186.7963626 173.95593575 -200.07920379 170.24559321 -213.37857533 166.59317493 C-219.93532299 164.79239567 -226.48916912 162.98131566 -233.04122448 161.16353893 C-237.77747062 159.85055615 -242.51750199 158.5525528 -247.260746 157.26509476 C-250.22381367 156.4570382 -253.1828738 155.63501844 -256.14101791 154.80913925 C-257.51601451 154.42833586 -258.89262819 154.0533161 -260.27090836 153.68457413 C-262.16164373 153.17789056 -264.04622382 152.64840418 -265.93041992 152.11791992 C-266.98758713 151.82801682 -268.04475433 151.53811371 -269.13395691 151.23942566 C-272.59055309 149.74461422 -274.50164965 147.78579825 -277 145 C-277.58523438 144.36320313 -278.17046875 143.72640625 -278.7734375 143.0703125 C-282.5506259 138.48241049 -285.34020572 133.72008103 -287.875 128.375 C-288.17325684 127.75383301 -288.47151367 127.13266602 -288.77880859 126.49267578 C-290.66435451 122.34491403 -291.83739145 118.56388004 -292 114 C-289.08715865 109.10230725 -284.90910769 107.92782309 -279.8125 105.9375 C-279.00619141 105.59912109 -278.19988281 105.26074219 -277.36914062 104.91210938 C-274.61025638 103.81407769 -271.83061787 102.8968745 -269 102 C-267.92919189 101.61295898 -266.85838379 101.22591797 -265.75512695 100.82714844 C-252.15534634 96.97758808 -239.72077358 101.81546191 -226.60968781 105.76331711 C-223.13231665 106.80232703 -219.64365151 107.80191845 -216.15576172 108.80493164 C-211.66035868 110.10064633 -207.1665835 111.40141835 -202.67773438 112.71968079 C-191.35615361 116.04417574 -180.0078452 119.26363751 -168.64220238 122.43408203 C-163.05067112 123.99446969 -157.46104533 125.56167152 -151.87117863 127.1280098 C-147.29402062 128.41045236 -142.71641275 129.6912266 -138.13772583 130.96820068 C-133.80636475 132.17720077 -129.47803522 133.39653353 -125.15173149 134.62350273 C-123.54853567 135.07639285 -121.94434367 135.52577285 -120.33912849 135.97145271 C-118.13824302 136.58302717 -115.94117376 137.20678413 -113.74462891 137.83374023 C-112.50838776 138.18137924 -111.27214661 138.52901825 -109.9984436 138.88719177 C-107.17769421 139.93405259 -105.74662606 140.58749716 -104 143 C-104 143.66 -104 144.32 -104 145 C-100.04 145.99 -100.04 145.99 -96 147 C-96.27714844 146.47535156 -96.55429688 145.95070312 -96.83984375 145.41015625 C-99.58212531 139.54499178 -100.22720408 134.67530067 -100.3125 128.3125 C-100.35812974 122.79603513 -100.35812974 122.79603513 -102.3984375 117.7734375 C-103.59159787 116.71574512 -104.82231312 115.69898126 -106.0859375 114.7265625 C-112.80686299 108.66401338 -115.79640864 97.67656732 -116.37109375 88.84375 C-116.86120006 71.49557396 -112.22893903 56.82676643 -100.375 43.75 C-93.44650835 37.21241547 -84.64184314 32.18905575 -75 32 C-74.72671875 31.26523437 -74.4534375 30.53046875 -74.171875 29.7734375 C-68.58286021 16.5461025 -58.0691281 6.96491843 -45.125 1.1875 C-29.93763711 -4.71653877 -15.58675647 -3.51347881 0 0 Z M29 234 C30.87411731 235.95220553 32.76274411 237.8088084 34.87109375 239.5078125 C42.11096915 245.39277738 46.8530823 252.54185677 48 262 C47.96003906 263.06476563 47.92007812 264.12953125 47.87890625 265.2265625 C47.77889152 270.6273577 47.82464492 274.4846833 51.21484375 278.85546875 C54.53623086 281.94654893 58.24594342 284.46861367 62 287 C62.86061035 287.59441895 63.7212207 288.18883789 64.60791016 288.80126953 C75.44638229 296.49537203 75.44638229 296.49537203 87 303 C88.1418329 299.5745013 88.43852155 296.27754747 88.75390625 292.70703125 C88.81907944 292.00100266 88.88425262 291.29497406 88.95140076 290.56755066 C89.15845087 288.31615898 89.36053685 286.06435315 89.5625 283.8125 C89.70214686 282.28447528 89.84211699 280.75648007 89.98242188 279.22851562 C90.32536425 275.48600892 90.66385571 271.74312317 91 268 C93.475 267.505 93.475 267.505 96 267 C96 265.02 96 263.04 96 261 C93.03 259.35 90.06 257.7 87 256 C86.80664062 257.40894531 86.61328125 258.81789063 86.4140625 260.26953125 C86.15144334 262.11724463 85.88840045 263.96489783 85.625 265.8125 C85.49867188 266.74126953 85.37234375 267.67003906 85.2421875 268.62695312 C85.11328125 269.51962891 84.984375 270.41230469 84.8515625 271.33203125 C84.73635254 272.15421143 84.62114258 272.9763916 84.50244141 273.82348633 C84 276 84 276 82 279 C75.31728233 280.17484451 66.87841295 279.28939328 60.98828125 275.8125 C55.9242249 271.90563892 53.56606312 267.0763609 52.68701172 260.74609375 C52.52170369 258.43276827 52.42941579 256.13100138 52.375 253.8125 C52.17158961 246.8526256 52.17158961 246.8526256 51 240 C48.45986091 239.1824493 45.91806769 238.37084814 43.375 237.5625 C42.30572266 237.21735352 42.30572266 237.21735352 41.21484375 236.86523438 C37.15824149 235.58126394 33.23060375 234.58054026 29 234 Z " fill="#383846" transform="translate(309,18)"/>
<path d="M0 0 C1.1875 2.5625 1.1875 2.5625 2 5 C1.67 5.33 1.34 5.66 1 6 C0.27743285 13.48069524 4.5139236 17.4969458 9 23 C9.69077637 23.85319824 9.69077637 23.85319824 10.39550781 24.72363281 C26.48925362 44.44413824 52.49323657 67.62412558 78.5390625 72.47265625 C91.41690825 73.26985622 102.42186525 64.68684109 111.65234375 56.70703125 C113.22027452 55.30753538 114.77768669 53.8960906 116.3203125 52.46875 C118 51 118 51 119 51 C118.46349133 60.47215304 117.32191562 69.83933002 116.10424805 79.24414062 C115.97703369 80.22962891 115.84981934 81.21511719 115.71875 82.23046875 C115.54762695 83.53600708 115.54762695 83.53600708 115.37304688 84.86791992 C112.64604261 107.7636907 113.41167721 130.94607639 113 154 C73.07 154 33.14 154 -8 154 C-7.5625 114.4375 -7.5625 114.4375 -7.36938477 102.09936523 C-7.20731136 84.13697845 -7.21883915 67.93116761 -14.17893982 51.05308533 C-15.38927958 48.02659487 -16.25215229 44.95193613 -17.125 41.8125 C-17.42019531 40.75933594 -17.71539062 39.70617187 -18.01953125 38.62109375 C-19.3039803 33.87733172 -20.57768956 29.13195211 -21.8125 24.375 C-22.04404785 23.5085083 -22.2755957 22.6420166 -22.51416016 21.74926758 C-22.72218262 20.93224365 -22.93020508 20.11521973 -23.14453125 19.2734375 C-23.33378174 18.54560059 -23.52303223 17.81776367 -23.71801758 17.06787109 C-24.03788924 14.7221456 -23.79411635 13.22111759 -23 11 C-21.29296875 9.18359375 -21.29296875 9.18359375 -19.1875 7.4375 C-18.15689453 6.56931641 -18.15689453 6.56931641 -17.10546875 5.68359375 C-16.41066406 5.12800781 -15.71585938 4.57242187 -15 4 C-14.33742187 3.45988281 -13.67484375 2.91976563 -12.9921875 2.36328125 C-10.94033018 0.95916713 -9.34285591 0.32469004 -6.9375 -0.25 C-6.26589844 -0.42015625 -5.59429687 -0.5903125 -4.90234375 -0.765625 C-3 -1 -3 -1 0 0 Z " fill="#F9E7D9" transform="translate(211,299)"/>
<path d="M0 0 C0.82322754 -0.00056396 1.64645508 -0.00112793 2.49462891 -0.00170898 C10.78273215 0.14404567 18.13856897 2.05375432 26.0625 4.375 C27.72470218 4.72992646 29.38988771 5.07291223 31.0625 5.375 C28.0719833 8.71057632 25.13065373 10.52583921 21.0625 12.375 C21.0625 14.685 21.0625 16.995 21.0625 19.375 C21.80113281 19.52195312 22.53976562 19.66890625 23.30078125 19.8203125 C41.33935512 23.80851054 52.84444052 34.71634073 63.92578125 48.890625 C66.69515922 52.11059646 69.78124239 54.55836092 73.21484375 57.03515625 C75.0625 58.375 75.0625 58.375 77.0625 60.375 C71.24584441 63.38958605 66.73238733 63.70157881 60.25 63.4375 C58.55628426 63.37769186 56.86223626 63.32647985 55.16796875 63.28515625 C54.42699951 63.25558838 53.68603027 63.22602051 52.92260742 63.19555664 C50.81350726 63.2000325 50.81350726 63.2000325 49.0625 65.375 C49.18047977 70.33015023 51.17819032 73.4959703 53.90625 77.4453125 C55.09472641 79.42878327 55.62102282 81.11744622 56.0625 83.375 C43.4814731 84.01834797 30.22428338 82.57599077 19.0625 76.375 C18.24394531 75.94316406 17.42539062 75.51132813 16.58203125 75.06640625 C8.57746855 70.59789848 2.55019143 64.6919219 -2.9375 57.375 C-6.22825996 57.75404208 -6.22825996 57.75404208 -8.9375 59.375 C-9.0342758 60.90390754 -9.06950567 62.43680694 -9.078125 63.96875 C-9.10712891 65.391875 -9.10712891 65.391875 -9.13671875 66.84375 C-9.17004612 68.8331377 -9.18876042 70.82283492 -9.19140625 72.8125 C-9.36657936 79.67191019 -10.64013731 84.90039596 -14.9375 90.375 C-17.10644531 92.12304687 -17.10644531 92.12304687 -18.9375 93.375 C-19.824375 92.529375 -20.71125 91.68375 -21.625 90.8125 C-23.8647064 88.97425041 -24.67124271 88.40596015 -27.625 88.0625 C-31.29825332 90.14731945 -31.71243411 93.50152577 -32.9375 97.375 C-34.76779496 101.67221425 -35.69289574 103.50981455 -39.9375 105.375 C-40.30101562 104.90449219 -40.66453125 104.43398437 -41.0390625 103.94921875 C-44.92498448 99.13665384 -48.08306731 95.84220396 -54.515625 95.0625 C-60.97597901 94.78008015 -64.65295059 95.7081698 -69.9375 99.375 C-71.26396156 100.0552367 -72.59358877 100.72992261 -73.9375 101.375 C-80.78977837 94.52272163 -83.12851127 85.99484121 -83.4375 76.4375 C-83.01571482 64.08327595 -78.79959109 51.90235494 -69.6953125 43.2421875 C-64.10076365 38.74017681 -59.04958139 35.63987806 -51.875 34.6875 C-48.24903026 34.0339095 -48.24903026 34.0339095 -45.4296875 31.82421875 C-44.15656661 29.72061834 -43.05163571 27.56674238 -41.9375 25.375 C-32.25301716 9.80097161 -18.78078331 -0.03278633 0 0 Z " fill="#5F5F72" transform="translate(286.9375,25.625)"/>
<path d="M0 0 C5.57306392 0.64803069 9.12323431 2.00593646 13 6.125 C14.65811776 8.50854427 15.88845147 10.736571 17.1875 13.3125 C20.09610425 18.72448499 24.30332368 22.15026531 29 26 C34.88705103 30.97128754 37.47772469 36.63187922 38.38671875 44.234375 C39.15535288 67.66446371 26.62092052 88.02708492 11.28466797 104.71386719 C6.69063869 109.52786549 1.61790819 113.43198503 -4 117 C-4.71027344 117.45375 -5.42054688 117.9075 -6.15234375 118.375 C-11.81023387 121.60167793 -17.01853631 122.08155211 -23.30078125 120.375 C-47.53118236 111.49184149 -69.48450748 92.21965781 -85 72 C-85 71.34 -85 70.68 -85 70 C-83.89163965 69.01848198 -82.73554396 68.09072098 -81.5625 67.1875 C-71.58051233 58.63403 -66.09347653 46.8411046 -61 35 C-57.87687344 36.78540511 -55.22244611 38.58090243 -52.625 41.0625 C-41.89430107 50.61889603 -26.73418911 62.2777994 -11.89453125 61.4609375 C-4.92868403 60.35166628 0.78226523 57.7568623 6 53 C8.22798164 49.977668 8.22798164 49.977668 10.1875 46.625 C11.19876953 44.97371094 11.19876953 44.97371094 12.23046875 43.2890625 C13.87883899 40.22520435 15.01924345 37.32954275 16 34 C12.69884945 35.70059271 10.28117144 37.64562473 7.75 40.3125 C2.57170041 45.66113839 -3.4393863 50.32075966 -10.9375 51.4375 C-20.8434697 51.24941197 -29.93449825 43.18231403 -37 37 C-37.845625 36.27554688 -38.69125 35.55109375 -39.5625 34.8046875 C-54.14534884 22.04469477 -54.14534884 22.04469477 -56 15.4375 C-56 14.633125 -56 13.82875 -56 13 C-51.47449413 13 -50.80953473 13.58739653 -47.375 16.25 C-40.4432739 21.26076388 -33.4049396 24.92215803 -24.6484375 24.5078125 C-17.65420732 23.16673592 -11.00304312 19.84468994 -6.5 14.25 C-3.60460904 9.82981734 -1.73208775 4.97211073 0 0 Z " fill="#D15486" transform="translate(309,240)"/>
<path d="M0 0 C15.35577936 4.66539439 30.85158667 8.84619669 46.35644531 12.98364258 C54.7735965 15.23140808 63.13794952 17.59791509 71.46972656 20.14306641 C81.41521594 23.1701742 91.43675574 25.93187297 101.45825195 28.69506836 C103.66946703 29.31598741 105.86346923 29.97611984 108.05957031 30.64770508 C111.42631365 31.52023804 113.69201195 31.2386873 117.04394531 30.42114258 C117.37394531 29.10114258 117.70394531 27.78114258 118.04394531 26.42114258 C123.59860667 27.09373205 127.79712129 27.95480075 132.23144531 31.48364258 C138.24495614 35.66403002 138.24495614 35.66403002 152.04394531 35.42114258 C152.04394531 47.30114258 152.04394531 59.18114258 152.04394531 71.42114258 C148.08394531 70.10114258 144.12394531 68.78114258 140.04394531 67.42114258 C136.09331312 67.12524503 132.35736044 66.96409709 128.41894531 66.98364258 C118.3387856 66.79306773 109.70747037 65.23349114 100.16650391 62.10180664 C96.63630368 60.96973875 93.05829759 60.0182655 89.48144531 59.04614258 C87.98114917 58.63054349 86.48115836 58.21384091 84.98144531 57.79614258 C84.19382813 57.57700195 83.40621094 57.35786133 82.59472656 57.13208008 C74.48803544 54.87263477 66.3852337 52.59924228 58.28173828 50.32836914 C53.03602263 48.85852452 47.78997066 47.3898814 42.54394531 45.92114258 C40.46061029 45.33781529 38.37727696 44.75448195 36.29394531 44.17114258 C35.26269531 43.88239258 34.23144531 43.59364258 33.16894531 43.29614258 C30.04394531 42.42114258 26.91894531 41.54614258 23.79394531 40.67114258 C22.76261475 40.38239258 21.73128418 40.09364258 20.66870117 39.79614258 C18.5861343 39.21297829 16.50361472 38.62964505 14.42114258 38.04614258 C8.15379822 36.29032595 1.88496907 34.53999783 -4.38598633 32.79711914 C-6.46357557 32.21615194 -8.53961662 31.62961768 -10.61401367 31.03735352 C-15.91628488 29.52517005 -21.21963175 28.10014712 -26.58105469 26.81176758 C-44.44727827 22.36093075 -44.44727827 22.36093075 -49.20605469 15.98364258 C-50.74902344 13.13989258 -50.74902344 13.13989258 -51.95605469 10.42114258 C-52.63087891 9.26098633 -52.63087891 9.26098633 -53.31933594 8.07739258 C-56.03909986 3.32887968 -56.03909986 3.32887968 -55.76245117 0.30493164 C-54.95605469 -1.57885742 -54.95605469 -1.57885742 -51.49121094 -3.28198242 C-50.00839211 -3.82036591 -48.51672198 -4.33478938 -47.01855469 -4.82885742 C-46.23875244 -5.08973145 -45.4589502 -5.35060547 -44.65551758 -5.61938477 C-29.27904181 -10.52156577 -14.86681907 -4.52374419 0 0 Z " fill="#EFF6FD" transform="translate(85.9560546875,136.578857421875)"/>
<path d="M0 0 C3.84218749 1.41113068 7.14592936 3.22754131 10.625 5.375 C17.7619739 9.59910293 24.86723378 12.42373158 33 14 C33.2277245 32.23022194 33.14740329 50.25082545 31.26025391 68.40869141 C31.0256982 70.74412696 30.83845438 73.07717397 30.66796875 75.41796875 C29.804589 84.72539219 27.07790361 94.29677665 19.98828125 100.86328125 C15.98516057 103.15190231 11.48758806 101.35388491 7.2578125 100.34765625 C-6.77342744 96.47389153 -28.2194162 89.07138079 -36 76 C-37.86452586 71.60141399 -39.06143036 67.31402248 -39.5625 62.5625 C-39.63446135 58.95510929 -39.63446135 58.95510929 -42 57 C-46.91801808 56.68270851 -49.65594008 56.75790456 -54 59 C-57.4375 59.4375 -57.4375 59.4375 -61 59 C-64.15954305 56.45862841 -65.71540886 54.85377341 -67 51 C-67.29765426 48.04681763 -67.32312249 45.09145034 -67.375 42.125 C-67.43107422 40.92037109 -67.43107422 40.92037109 -67.48828125 39.69140625 C-67.55225845 35.37649988 -67.40251864 33.5434703 -64.7578125 29.97265625 C-61.23345887 27.45169509 -59.36023644 27.20107153 -55.15234375 27.453125 C-52.24238837 28.1924966 -50.62329252 29.75225149 -48.9296875 32.19921875 C-47.44734607 35.07047673 -46.69398658 37.84551555 -46 41 C-40.88032571 41.63995929 -38.01456114 40.27691699 -33.89453125 37.49609375 C-29.9541237 34.38439047 -26.96966902 30.65558131 -25 26 C-23.845 26.28875 -22.69 26.5775 -21.5 26.875 C-17.8014143 27.31935305 -15.91898485 26.76401638 -12.875 24.625 C-5.17779237 18.12479907 -1.16317133 9.8869563 0 0 Z " fill="#FDC6BD" transform="translate(287,103)"/>
<path d="M0 0 C3.09727201 0.48872142 5.93236555 1.29299005 8.86328125 2.375 C19.14870701 6.155827 28.03768797 7.83924988 39 8 C40.74318737 26.59000053 41.3260452 45.02180682 41.25 63.6875 C41.24756287 64.99851685 41.24512573 66.30953369 41.24261475 67.66027832 C41.19530987 92.20945344 40.70473203 116.68276955 37 141 C24.87763902 139.19594628 13.18466457 128.90283829 5.984375 119.31640625 C1.77501915 112.60391403 -0.24098375 106.18133486 -0.30078125 98.20703125 C-0.30619934 97.55951904 -0.31161743 96.91200684 -0.31719971 96.24487305 C-0.32876027 94.10054746 -0.32222317 91.95682915 -0.3125 89.8125 C-0.31200653 89.06688812 -0.31151306 88.32127625 -0.31100464 87.55307007 C-0.27333968 68.60709695 1.19774948 49.75451914 2.63232422 30.87353516 C2.98648931 26.19117706 3.33820222 21.50891558 3.66015625 16.82421875 C3.75047119 15.55022217 3.84078613 14.27622559 3.93383789 12.96362305 C4.22926833 10.06931576 4.22926833 10.06931576 3 8 C2.01 7.67 1.02 7.34 0 7 C0 4.69 0 2.38 0 0 Z " fill="#E5EDFD" transform="translate(405,279)"/>
<path d="M0 0 C4.68106529 3.87951301 6.62826312 7.41404718 7.7109375 13.41796875 C8.57165587 23.40230189 3.00332839 32.74717914 -1.2890625 41.41796875 C-1.83820313 42.53042969 -2.38734375 43.64289063 -2.953125 44.7890625 C-8.00916805 54.16640343 -18.0035497 68.24662189 -28.2890625 72.41796875 C-33.3661472 73.01557851 -35.29610109 73.04100336 -39.67578125 70.29296875 C-40.79027691 69.35122824 -41.89012503 68.39194483 -42.9765625 67.41796875 C-44.19226006 66.39843087 -45.41240716 65.38417748 -46.63671875 64.375 C-47.24531738 63.87178223 -47.85391602 63.36856445 -48.48095703 62.85009766 C-59.31871254 54.2659397 -72.42031587 48.25798407 -85.2890625 43.41796875 C-81.06223599 27.35602803 -67.20139639 13.06506004 -53.4140625 4.60546875 C-39.22680932 -3.28447463 -14.78735856 -9.52903792 0 0 Z " fill="#F0F4FE" transform="translate(233.2890625,216.58203125)"/>
<path d="M0 0 C47.73967231 -1.48885841 47.73967231 -1.48885841 64.515625 13.203125 C67.44685265 16.50306053 69.62577394 19.96813905 71.875 23.75 C76.43091473 31.20010274 81.34703416 37.93880009 87.0625 44.546875 C87.60729004 45.17770996 88.15208008 45.80854492 88.71337891 46.45849609 C89.80386323 47.71625424 90.89973605 48.96936479 92.00146484 50.21728516 C94.24911383 52.79231067 95.90772264 54.72316793 97 58 C96.31035156 58.35191406 95.62070313 58.70382812 94.91015625 59.06640625 C85.29300214 64.11904003 77.45413623 70.11443466 70 78 C38.94823483 66.69310725 15.76921279 32.23939311 1.1953125 4.57421875 C0 2 0 2 0 0 Z " fill="#EEF3FD" transform="translate(69,345)"/>
<path d="M0 0 C4.11389867 2.98695302 8.09807917 6.03056325 11.875 9.4375 C16.29294458 13.38020751 21.09610479 16.69389032 26 20 C25.29037109 21.18529297 25.29037109 21.18529297 24.56640625 22.39453125 C16.33057428 36.44200293 9.08557833 50.54037826 5.11474609 66.41455078 C3.75909511 71.55468367 2.31901656 74.5796608 -2 78 C-4.90439761 78.96813254 -6.7281824 79.12144834 -9.74682617 79.11352539 C-10.70759567 79.11344986 -11.66836517 79.11337433 -12.6582489 79.11329651 C-13.69270645 79.10813522 -14.727164 79.10297394 -15.79296875 79.09765625 C-17.38471672 79.09553383 -17.38471672 79.09553383 -19.00862122 79.09336853 C-22.40160935 79.08776606 -25.79453177 79.07521314 -29.1875 79.0625 C-31.48632717 79.05748532 -33.78515538 79.05292236 -36.08398438 79.04882812 C-41.72267872 79.03779583 -47.36133466 79.0210553 -53 79 C-49.81900294 50.89634537 -28.54569147 24.95950803 -7.171875 7.71875 C-6.45515625 7.1515625 -5.7384375 6.584375 -5 6 C-3.43494459 4.35870717 -3.43494459 4.35870717 -2.1875 2.75 C-1.465625 1.8425 -0.74375 0.935 0 0 Z " fill="#E9679C" transform="translate(99,407)"/>
<path d="M0 0 C1.1875 2.5625 1.1875 2.5625 2 5 C1.67 5.33 1.34 5.66 1 6 C0.27743285 13.48069524 4.5139236 17.4969458 9 23 C9.69077637 23.85319824 9.69077637 23.85319824 10.39550781 24.72363281 C26.48925362 44.44413824 52.49323657 67.62412558 78.5390625 72.47265625 C91.41690825 73.26985622 102.42186525 64.68684109 111.65234375 56.70703125 C113.22027452 55.30753538 114.77768669 53.8960906 116.3203125 52.46875 C118 51 118 51 119 51 C118.88556397 53.0839403 118.75804453 55.16716493 118.625 57.25 C118.55539062 58.41015625 118.48578125 59.5703125 118.4140625 60.765625 C117.80863498 65.49481356 117.04523266 67.15074847 113.3125 70.18359375 C112.21599704 70.94603726 111.11134976 71.69686476 110 72.4375 C109.42056641 72.83074463 108.84113281 73.22398926 108.24414062 73.62915039 C103.37771714 76.87276351 98.36052813 79.65005017 93 82 C92.2265625 82.35191406 91.453125 82.70382812 90.65625 83.06640625 C87.43742574 84.1977283 84.38760393 84.61295059 81 85 C79.97003906 85.12503906 78.94007813 85.25007813 77.87890625 85.37890625 C45.69002568 87.16085841 10.61927113 62.71572118 -13.328125 43.1796875 C-14.93132886 41.80782224 -14.93132886 41.80782224 -17 42 C-18.16346596 37.6768676 -19.316675 33.35120271 -20.4609375 29.02294922 C-20.95458203 27.17044082 -21.4610233 25.32135468 -21.96875 23.47265625 C-22.38640625 21.90837891 -22.38640625 21.90837891 -22.8125 20.3125 C-23.06644531 19.38050781 -23.32039062 18.44851563 -23.58203125 17.48828125 C-24.02953037 14.82419768 -24.06271891 13.47286516 -23 11 C-21.29296875 9.18359375 -21.29296875 9.18359375 -19.1875 7.4375 C-18.15689453 6.56931641 -18.15689453 6.56931641 -17.10546875 5.68359375 C-16.41066406 5.12800781 -15.71585938 4.57242187 -15 4 C-14.33742187 3.45988281 -13.67484375 2.91976563 -12.9921875 2.36328125 C-10.94033018 0.95916713 -9.34285591 0.32469004 -6.9375 -0.25 C-6.26589844 -0.42015625 -5.59429687 -0.5903125 -4.90234375 -0.765625 C-3 -1 -3 -1 0 0 Z " fill="#D6BDAB" transform="translate(211,299)"/>
<path d="M0 0 C5.11598164 1.63552953 10.28758906 3.06061761 15.46484375 4.48779297 C16.51534912 4.77960449 17.56585449 5.07141602 18.64819336 5.37207031 C20.76762287 5.96064743 22.88733212 6.54821816 25.00732422 7.13476562 C29.84926906 8.47467971 34.68880835 9.82312329 39.52734375 11.17529297 C40.51460449 11.45115234 41.50186523 11.72701172 42.51904297 12.01123047 C53.97992051 15.22315148 65.42044959 18.50636705 76.86334229 21.78164673 C88.50465659 25.11334858 100.150343 28.42613973 111.81542969 31.67382812 C119.37632058 33.78020771 126.92298183 35.93441549 134.46020508 38.12402344 C135.26095459 38.35492676 136.0617041 38.58583008 136.88671875 38.82373047 C137.92844238 39.12609619 137.92844238 39.12609619 138.99121094 39.43457031 C141.33338891 40.05199415 143.71468994 40.51276221 146.08984375 40.98779297 C146.08984375 45.60779297 146.08984375 50.22779297 146.08984375 54.98779297 C144.60484375 54.34841797 143.11984375 53.70904297 141.58984375 53.05029297 C135.17874039 50.8677897 129.20395002 50.66615608 122.46484375 50.55029297 C112.38182782 50.33663683 103.75986202 48.80227283 94.21240234 45.66845703 C90.68220212 44.53638914 87.10419603 43.58491589 83.52734375 42.61279297 C82.02704761 42.19719388 80.52705679 41.7804913 79.02734375 41.36279297 C78.23972656 41.14365234 77.45210938 40.92451172 76.640625 40.69873047 C68.53393388 38.43928516 60.43113214 36.16589267 52.32763672 33.89501953 C47.08192107 32.42517491 41.8358691 30.95653179 36.58984375 29.48779297 C34.50650873 28.90446568 32.42317539 28.32113234 30.33984375 27.73779297 C29.30859375 27.44904297 28.27734375 27.16029297 27.21484375 26.86279297 C24.08984375 25.98779297 20.96484375 25.11279297 17.83984375 24.23779297 C16.80851318 23.94904297 15.77718262 23.66029297 14.71459961 23.36279297 C12.63203273 22.77962868 10.54951316 22.19629544 8.46704102 21.61279297 C3.2473564 20.15048157 -1.97312664 18.69114862 -7.1953125 17.23779297 C-21.46565006 13.26193897 -35.69869608 9.16921597 -49.91015625 4.98779297 C-46.87857586 2.54877279 -43.83181822 0.13968176 -40.72265625 -2.19970703 C-39.71138672 -2.96347656 -39.71138672 -2.96347656 -38.6796875 -3.74267578 C-27.99494903 -11.408327 -10.87302435 -3.57528587 0 0 Z " fill="#A2BCEF" transform="translate(91.91015625,153.01220703125)"/>
<path d="M0 0 C10.92072929 3.45287764 20.76538161 11.75170365 28.65625 19.83984375 C23.87954776 24.71606062 19.05764035 29.45460393 13.87890625 33.90234375 C11.13631621 36.2930725 8.45770311 38.75076734 5.78125 41.21484375 C1.24568205 45.38708278 -3.31166459 49.5328154 -7.90234375 53.64453125 C-9.58984281 55.1619304 -11.26903444 56.68860091 -12.94140625 58.22265625 C-14.62862957 59.76482417 -16.32992223 61.29178238 -18.046875 62.80078125 C-20.3088319 64.75797964 -20.3088319 64.75797964 -22.140625 66.69140625 C-23.78125 68.21484375 -23.78125 68.21484375 -27.34375 69.83984375 C-30.2177052 69.02477121 -32.62988914 67.78396451 -35.26953125 66.38671875 C-45.22465669 61.37753238 -56.39588581 60.00516263 -67.34375 58.83984375 C-64.98706662 55.78757541 -62.66740965 53.07424635 -59.71875 50.58984375 C-56.5524264 47.88257822 -53.43326914 45.1346703 -50.34375 42.33984375 C-46.72698655 39.07593527 -43.07985392 35.85193426 -39.40625 32.65234375 C-37.03410571 30.56773211 -34.68818935 28.45555731 -32.34375 26.33984375 C-28.72834795 23.07716385 -25.0828544 19.85409425 -21.41015625 16.65625 C-19.01478608 14.55067887 -16.64769858 12.41535687 -14.28125 10.27734375 C-13.44078125 9.52582031 -12.6003125 8.77429688 -11.734375 8 C-10.24554795 6.65470366 -8.77336129 5.29045772 -7.328125 3.8984375 C-2.95208093 -0.20172553 -2.95208093 -0.20172553 0 0 Z " fill="#FCC5BC" transform="translate(160.34375,276.16015625)"/>
<path d="M0 0 C3.37583348 1.58905827 6.69410774 3.27022371 10 5 C10.98097656 5.50789063 11.96195312 6.01578125 12.97265625 6.5390625 C19.04602404 9.98853922 22.0544133 12.57611091 24.03320312 19.33764648 C25.0157242 22.0433011 26.1846945 23.83168111 27.91015625 26.1171875 C31.40817914 31.22663541 32.78974359 36.25697461 34.125 42.25 C34.37233887 43.30501709 34.61967773 44.36003418 34.87451172 45.44702148 C35.60818272 48.62634206 36.30992933 51.81096016 37 55 C37.19335938 55.87736816 37.38671875 56.75473633 37.5859375 57.65869141 C41.20171133 74.33251799 45 92.88408419 45 110 C41.43793278 110.14567407 37.87663449 110.23419196 34.3125 110.3125 C33.30509766 110.35439453 32.29769531 110.39628906 31.25976562 110.43945312 C23.74004956 110.56354085 23.74004956 110.56354085 19.85546875 107.60546875 C17.20072264 103.87764632 16.79287721 101.68883001 16.421875 97.1484375 C16.31560791 95.9200415 16.20934082 94.69164551 16.09985352 93.42602539 C16.04338654 92.76684113 15.98691956 92.10765686 15.92874146 91.42849731 C13.95281965 68.72783103 11.07060536 45.99987383 5 24 C4.2452603 20.98510621 3.52616179 17.96234558 2.8125 14.9375 C2.64548584 14.24599854 2.47847168 13.55449707 2.30639648 12.84204102 C1.29426807 8.57005691 0.55976636 4.34808419 0 0 Z " fill="#DC5D90" transform="translate(375,376)"/>
<path d="M0 0 C1.3672911 0.47079614 2.7280221 0.96101662 4.08203125 1.46875 C4.80672607 1.73284668 5.5314209 1.99694336 6.27807617 2.26904297 C25.95862422 9.74201531 25.95862422 9.74201531 30.89453125 16.96875 C31.40841906 20.35596808 31.31441341 23.67661114 31.20703125 27.09375 C31.1925293 28.44339844 31.1925293 28.44339844 31.17773438 29.8203125 C30.90423846 46.37276119 30.90423846 46.37276119 27.95703125 51.03125 C24.43461658 54.34018499 21.74142442 54.37212256 17.0546875 54.3046875 C7.3760644 53.27581038 -1.79157485 49.43521349 -10.35546875 44.96875 C-11.2849231 44.48921875 -11.2849231 44.48921875 -12.2331543 44 C-16.15052564 41.84737162 -18.62505265 39.67140489 -21.10546875 35.96875 C-21.60717773 33.12548828 -21.60717773 33.12548828 -21.6015625 30.0390625 C-21.60220703 28.91371094 -21.60285156 27.78835937 -21.60351562 26.62890625 C-21.58353516 25.46230469 -21.56355469 24.29570312 -21.54296875 23.09375 C-21.55005859 21.93488281 -21.55714844 20.77601563 -21.56445312 19.58203125 C-21.50819336 12.00860145 -21.11032302 6.41549461 -15.98046875 0.53125 C-10.96969361 -2.19199736 -5.38312061 -1.58754884 0 0 Z " fill="#FDCAC1" transform="translate(417.10546875,223.03125)"/>
<path d="M0 0 C7.61982837 5.63658537 13.59118672 13.8314274 16 23 C16.27398705 26.98828332 16.23259256 30.96491465 16.1953125 34.9609375 C16.1924826 36.10664215 16.18965271 37.2523468 16.18673706 38.43276978 C16.17557135 42.08028755 16.15047299 45.72755685 16.125 49.375 C16.11496555 51.85286103 16.10584051 54.33072592 16.09765625 56.80859375 C16.0756438 62.87248014 16.04220194 68.93622231 16 75 C14.22954778 75.02198561 12.4590171 75.0377185 10.68847656 75.05078125 C9.20954926 75.06492065 9.20954926 75.06492065 7.70074463 75.0793457 C1.01521712 74.88293029 -4.34274335 71.06154624 -8.875 66.375 C-14.34486947 59.46365904 -15.98854608 51.99322693 -16.9375 43.375 C-18.11217188 33.30346547 -22.28811394 27.33624756 -29 20 C-25.52458432 12.29956918 -18.92244734 7.63351726 -11.8125 3.5 C-11.21856445 3.14969727 -10.62462891 2.79939453 -10.01269531 2.43847656 C-6.57344249 0.52521154 -3.92975013 -0.78203983 0 0 Z " fill="#FCC5BB" transform="translate(176,411)"/>
<path d="M0 0 C4.13620986 2.70093199 8.1372769 5.54247461 12.11743164 8.46777344 C20.21424924 14.41145224 28.45619275 19.95037677 37.03515625 25.171875 C40 27 40 27 41 28 C41.01698933 31.03154535 40.97074045 34.03755404 40.87890625 37.06640625 C40.84348976 38.42934059 40.84348976 38.42934059 40.80735779 39.81980896 C40.73052149 42.73419046 40.64658363 45.64831944 40.5625 48.5625 C40.50929928 50.53319059 40.45655877 52.50389366 40.40429688 54.47460938 C40.27487948 59.31656745 40.13909094 64.15831054 40 69 C34.40111662 66.89396948 29.52876501 63.8582009 24.4375 60.75 C23.42768066 60.13463379 22.41786133 59.51926758 21.37744141 58.88525391 C11.97163804 53.09062032 2.81183246 46.94004888 -6.08300781 40.38574219 C-7.6926479 39.22217658 -9.36776756 38.1499552 -11.0546875 37.1015625 C-13 35 -13 35 -13.54296875 31.203125 C-13.25535908 26.83953127 -11.53747719 23.4468928 -9.3125 19.75 C-8.57501457 18.45432455 -7.84198585 17.15610292 -7.11328125 15.85546875 C-6.75314941 15.21399902 -6.39301758 14.5725293 -6.02197266 13.91162109 C-3.63580832 9.44825111 -1.82576427 4.71363179 0 0 Z " fill="#FBC5BC" transform="translate(355,306)"/>
<path d="M0 0 C3.77269733 1.25756578 4.88388365 2.67467431 7 6 C6.79890625 6.78117188 6.5978125 7.56234375 6.390625 8.3671875 C5.70911907 11.07888066 5.70911907 11.07888066 7.40625 13.4296875 C9.58423741 15.97338175 11.75884293 18.51156991 14 21 C14.54011719 21.61101562 15.08023438 22.22203125 15.63671875 22.8515625 C24.38085796 32.1463402 36.9238222 42.4873037 49.75 44.625 C58.0198364 43.03464685 62.98947091 38.5094492 68.7878418 32.79760742 C73.34529804 28.37417187 73.34529804 28.37417187 77 28 C76.50365993 33.08748574 74.74544961 36.7783481 72 41 C71.60063232 41.61649414 71.20126465 42.23298828 70.78979492 42.86816406 C67.32762092 47.96346459 63.59936334 51.31831258 58 54 C57.071875 54.45375 56.14375 54.9075 55.1875 55.375 C42.14345457 57.93265597 33.02468713 53.73423434 22.38671875 46.625 C14.94031107 41.48940688 7.90711107 35.83580405 1 30 C0.73896484 30.52319824 0.47792969 31.04639648 0.20898438 31.58544922 C-4.74969056 41.45286498 -9.46747039 50.82712111 -17 59 C-17.48339844 59.57363281 -17.96679688 60.14726562 -18.46484375 60.73828125 C-21.32080816 63.95883686 -21.32080816 63.95883686 -24.0625 64.125 C-26 63 -26 63 -27.9375 60.4375 C-28.9584375 59.2309375 -28.9584375 59.2309375 -30 58 C-30.845625 58 -31.69125 58 -32.5625 58 C-33.366875 58 -34.17125 58 -35 58 C-36.81883009 55.6167054 -38 54.04181663 -38 51 C-36.61562 50.0655435 -35.22738312 49.13647465 -33.82421875 48.23046875 C-17.40250141 37.15372151 -6.87612615 18.04983115 0 0 Z " fill="#933E65" transform="translate(248,246)"/>
<path d="M0 0 C2.6159665 1.2729239 5.11168881 2.63655467 7.58203125 4.171875 C15.8156636 9.2062034 23.87426743 13.4775654 32.92578125 16.84375 C33.94027344 17.2253125 34.95476562 17.606875 36 18 C36.77988281 18.268125 37.55976563 18.53625 38.36328125 18.8125 C40 20 40 20 40.6171875 22.46875 C40.70226562 23.4690625 40.78734375 24.469375 40.875 25.5 C41.81239614 32.51780352 44.47326763 38.66829431 49.6953125 43.6015625 C51 45 51 45 50.9375 47.8125 C49.19344855 53.74227494 45.98535055 57.45777724 41 61 C36.91952139 63.0402393 32.41711627 62.66311547 28 62 C15.68423958 56.85060638 7.69738137 48.14661968 2.16870117 36.2043457 C-0.72259835 28.93734752 -0.33574415 21.64999692 -0.1875 13.9375 C-0.17241956 12.58139514 -0.15873712 11.22527398 -0.14648438 9.86914062 C-0.11135836 6.57900398 -0.0621664 3.28971817 0 0 Z " fill="#FDCAC1" transform="translate(248,192)"/>
<path d="M0 0 C27.39 0 54.78 0 83 0 C83 7.26 83 14.52 83 22 C55.61 22 28.22 22 0 22 C0 14.74 0 7.48 0 0 Z " fill="#606073" transform="translate(203,464)"/>
<path d="M0 0 C8.46637697 2.0842524 16.89597845 4.28577951 25.3125 6.5625 C27.00342773 7.01786133 27.00342773 7.01786133 28.72851562 7.48242188 C34.16413603 8.94917659 39.59276883 10.43166888 45 12 C44.38870276 14.92135732 43.41450663 17.05214974 41.9375 19.625 C38.57109906 26.83177169 39.69878075 35.24360431 40 43 C34.10533803 42.39645099 28.63080337 41.24751903 22.9375 39.625 C22.17373047 39.41617188 21.40996094 39.20734375 20.62304688 38.9921875 C14.64911668 37.31601205 9.12363903 35.43020588 3.9375 31.9375 C-0.50488329 29.00741741 -4.25985859 28.02315895 -9.5 27.8125 C-13.30370094 27.46612588 -14.92938506 26.56968587 -17.4375 23.6875 C-20.43857772 19.74591359 -22 17.04208458 -22 12 C-21.11957031 11.91363281 -20.23914063 11.82726562 -19.33203125 11.73828125 C-12.15850186 10.99449345 -12.15850186 10.99449345 -5.9375 7.6875 C-5.298125 6.800625 -4.65875 5.91375 -4 5 C-3.236875 4.071875 -2.47375 3.14375 -1.6875 2.1875 C-1.130625 1.465625 -0.57375 0.74375 0 0 Z " fill="#ADC6FA" transform="translate(320,203)"/>
<path d="M0 0 C-0.47427376 7.13046063 -1.32223376 14.22867871 -2.25 21.3125 C-2.34708252 22.17198242 -2.44416504 23.03146484 -2.54418945 23.91699219 C-3.36251018 29.8430414 -4.86983703 32.6891424 -9 37 C-13.25780339 45.36354237 -13.16009093 53.38622207 -13.125 62.5625 C-13.12886719 63.57763672 -13.13273437 64.59277344 -13.13671875 65.63867188 C-13.14678259 71.35488342 -13.14678259 71.35488342 -12.40234375 77.00390625 C-11.74891952 81.86969638 -12.70565663 86.54794797 -13.4375 91.375 C-13.58509766 92.39722656 -13.73269531 93.41945313 -13.88476562 94.47265625 C-14.24842384 96.98307102 -14.62038876 99.4919566 -15 102 C-21.703125 101.2421875 -21.703125 101.2421875 -24.375 99.0625 C-27.12330048 95.57427246 -27.23726706 93.1292119 -27.53515625 88.7265625 C-27.6235376 87.4377417 -27.71191895 86.1489209 -27.80297852 84.82104492 C-28.11888985 79.84520341 -28.38482264 74.86655258 -28.64161682 69.88734436 C-28.84460381 66.12867852 -29.1593492 62.421904 -29.65625 58.69140625 C-31.43931857 41.97002742 -22.15203062 26.46751874 -14.92810059 11.88977051 C-14.26608381 10.54179185 -13.62080229 9.18554052 -12.98693848 7.82409668 C-12.4776178 6.75052917 -12.4776178 6.75052917 -11.95800781 5.65527344 C-11.65469543 5.00379333 -11.35138306 4.35231323 -11.03887939 3.68109131 C-8.29257434 -0.76291786 -4.67547275 -0.17643293 0 0 Z " fill="#F8B159" transform="translate(399,185)"/>
<path d="M0 0 C2.02560851 1.31278735 3.38443865 2.59578609 4.94799805 4.42749023 C5.47200195 5.03915039 5.99600586 5.65081055 6.53588867 6.28100586 C7.33736328 7.23716797 7.33736328 7.23716797 8.1550293 8.21264648 C8.70094727 8.8462207 9.24686523 9.47979492 9.80932617 10.13256836 C13.83446169 14.87594368 13.83446169 14.87594368 14.9675293 18.27514648 C14.27788086 18.62706055 13.58823242 18.97897461 12.87768555 19.34155273 C3.26053144 24.39418651 -4.57833447 30.38958115 -12.0324707 38.27514648 C-28.69710892 32.20704453 -43.16080525 16.98229739 -55.0324707 4.27514648 C-55.0324707 3.94514648 -55.0324707 3.61514648 -55.0324707 3.27514648 C-49.2824707 3.15014648 -49.2824707 3.15014648 -47.0324707 4.27514648 C-43.07965281 4.52142153 -39.11708008 4.46037085 -35.1574707 4.46264648 C-34.0746582 4.47489258 -32.9918457 4.48713867 -31.8762207 4.49975586 C-22.8821009 4.51585512 -13.91956832 4.01223102 -5.5324707 0.52514648 C-2.0324707 -0.72485352 -2.0324707 -0.72485352 0 0 Z " fill="#AFC8FC" transform="translate(151.032470703125,384.724853515625)"/>
<path d="M0 0 C4.24889783 3.9979446 5.66811745 7.1427873 6.17578125 13.04296875 C5.96842721 22.31009939 1.02611626 30.86709506 -3 39 C-3.54914063 40.11246094 -4.09828125 41.22492188 -4.6640625 42.37109375 C-9.72010555 51.74843468 -19.7144872 65.82865314 -30 70 C-35.0770847 70.59760976 -37.00703859 70.62303461 -41.38671875 67.875 C-42.50121441 66.93325949 -43.60106253 65.97397608 -44.6875 65 C-45.90319756 63.98046212 -47.12334466 62.96620873 -48.34765625 61.95703125 C-48.95625488 61.45381348 -49.56485352 60.9505957 -50.19189453 60.43212891 C-61.02965004 51.84797095 -74.13125337 45.84001532 -87 41 C-85.45454854 35.52067211 -82.84456788 30.88570819 -80 26 C-78.00976962 27.99023038 -77.43855387 29.15783215 -76.375 31.6875 C-72.41879765 39.73129149 -65.25445206 44.11404496 -57 47 C-52.17267283 48.4020024 -47.36780272 48.26277089 -42.375 48.3125 C-41.42753906 48.34150391 -40.48007813 48.37050781 -39.50390625 48.40039062 C-28.4615307 48.49857864 -21.06365411 44.87884882 -13.1875 37.2734375 C-3.19661825 26.89005683 -0.23619512 14.12876239 0 0 Z " fill="#AFC7FA" transform="translate(235,219)"/>
<path d="M0 0 C0.51145292 1.99710188 1.00856982 3.99787703 1.5 6 C1.7784375 7.11375 2.056875 8.2275 2.34375 9.375 C3.77821426 17.29870735 2.77581094 22.99326919 0.0625 30.4375 C-0.40023315 31.73107422 -0.40023315 31.73107422 -0.87231445 33.05078125 C-3.10258968 39.07026264 -5.69864146 44.82060824 -8.6875 50.5 C-9.05544678 51.19923584 -9.42339355 51.89847168 -9.80249023 52.61889648 C-11.81472764 56.28405937 -13.82980233 59.19476865 -17 62 C-23.72081171 54.21704366 -28.86782295 45.85730754 -34 37 C-34.99674797 35.33138643 -35.99534323 33.66386374 -37 32 C-21.85511966 17.77505282 -21.85511966 17.77505282 -16.04296875 12.796875 C-14.30824063 11.27111031 -12.61351631 9.71768055 -10.92578125 8.140625 C-10.10920044 7.38011841 -10.10920044 7.38011841 -9.27612305 6.60424805 C-8.19166897 5.59163124 -7.11096742 4.57497777 -6.03442383 3.55395508 C-2.22150128 0 -2.22150128 0 0 0 Z " fill="#C44A7B" transform="translate(179,320)"/>
<path d="M0 0 C3.09727201 0.48872142 5.93236555 1.29299005 8.86328125 2.375 C19.05592279 6.12172038 28.13890934 7.97040575 39 8 C40.20634311 22.01411353 41.38269012 35.92550794 41 50 C40.67 50 40.34 50 40 50 C40 46.04 40 42.08 40 38 C39.19046875 37.76667969 38.3809375 37.53335938 37.546875 37.29296875 C33.1819684 35.70179685 29.29122638 33.58701445 25.25 31.3125 C24.4573877 30.86986816 23.66477539 30.42723633 22.84814453 29.97119141 C16.96750737 26.64536573 11.38697465 23.08760388 6 19 C5.34 19.33 4.68 19.66 4 20 C4.01160156 19.30132812 4.02320313 18.60265625 4.03515625 17.8828125 C4.04417969 16.97273438 4.05320312 16.06265625 4.0625 15.125 C4.07410156 14.22007812 4.08570313 13.31515625 4.09765625 12.3828125 C4.16249257 9.9831415 4.16249257 9.9831415 3 8 C2.01 7.67 1.02 7.34 0 7 C0 4.69 0 2.38 0 0 Z " fill="#AEC6FA" transform="translate(405,279)"/>
<path d="M0 0 C0.33 0 0.66 0 1 0 C1.69628217 12.55242014 0.35210623 27.30370656 -7 38 C-8.31071944 38.71009631 -9.64991469 39.36794629 -11 40 C-12.52923774 41.11681314 -14.05701893 42.23587871 -15.56787109 43.37744141 C-25.17063844 50.58825159 -35.56808854 57.8287941 -48 57 C-53.77075373 55.78666204 -58.52033082 52.73305765 -63 49 C-63 48.01 -63 47.02 -63 46 C-62.35562988 46.0314209 -61.71125977 46.0628418 -61.04736328 46.09521484 C-45.7591153 47.40391192 -45.7591153 47.40391192 -32.10546875 41.94140625 C-31.41066406 41.30074219 -30.71585937 40.66007812 -30 40 C-29.12988281 39.30777344 -28.25976562 38.61554688 -27.36328125 37.90234375 C-15.0721766 27.63404293 -7.0275122 14.19597736 0 0 Z " fill="#943E65" transform="translate(346,281)"/>
<path d="M0 0 C10.92178359 3.43210233 20.77431057 11.75294567 28.66015625 19.8359375 C19.43464372 29.43047053 19.43464372 29.43047053 13.66015625 32.8359375 C13.18191406 32.50722656 12.70367187 32.17851562 12.2109375 31.83984375 C5.14482535 27.2894155 -2.36812504 24.12373437 -10.11401367 20.90844727 C-11.00193604 20.53905029 -11.8898584 20.16965332 -12.8046875 19.7890625 C-14.00532837 19.29647949 -14.00532837 19.29647949 -15.23022461 18.79394531 C-17.33984375 17.8359375 -17.33984375 17.8359375 -20.33984375 15.8359375 C-17.64545889 13.37055099 -14.94635142 10.91084623 -12.234375 8.46484375 C-10.54575968 6.93118908 -8.8696447 5.38312104 -7.2265625 3.80078125 C-2.95340198 -0.20708328 -2.95340198 -0.20708328 0 0 Z " fill="#E58481" transform="translate(160.33984375,276.1640625)"/>
<path d="M0 0 C2.65503402 1.32751701 5.08241803 2.61836285 7.58203125 4.171875 C15.8156636 9.2062034 23.87426743 13.4775654 32.92578125 16.84375 C33.94027344 17.2253125 34.95476562 17.606875 36 18 C36.77214844 18.24492187 37.54429687 18.48984375 38.33984375 18.7421875 C40 20 40 20 40.828125 23.0390625 C40.96734375 24.22242188 41.1065625 25.40578125 41.25 26.625 C41.39953125 27.81351563 41.5490625 29.00203125 41.703125 30.2265625 C41.85007812 31.59941406 41.85007812 31.59941406 42 33 C27.13175753 31.76097979 15.20977566 26.59107007 2 20 C1.67 22.97 1.34 25.94 1 29 C0.67 29 0.34 29 0 29 C0 19.43 0 9.86 0 0 Z " fill="#E28481" transform="translate(248,192)"/>
<path d="M0 0 C8.91 0 17.82 0 27 0 C27 7.26 27 14.52 27 22 C18.09 22 9.18 22 0 22 C0 14.74 0 7.48 0 0 Z " fill="#FBAF56" transform="translate(297,464)"/>
<path d="M0 0 C11.82608696 3.54782609 11.82608696 3.54782609 16.9375 5.4375 C18.01902344 5.82808594 19.10054688 6.21867187 20.21484375 6.62109375 C23.17476551 8.08652486 24.38852075 9.15103669 26 12 C26.59171765 16.63512156 25.79190819 19.27745574 23 23 C18.69461453 25.87025698 15.05698487 25.59575438 10 25 C6.19246934 23.89706291 2.67770601 22.50880247 -1 21 C-0.67 14.07 -0.34 7.14 0 0 Z " fill="#555567" transform="translate(458,254)"/>
<path d="M0 0 C3.84218749 1.41113068 7.14592936 3.22754131 10.625 5.375 C17.80242265 9.623043 24.82979285 12.36595857 33 14 C33 17.63 33 21.26 33 25 C26.65805437 24.09400777 21.48804624 21.97842261 15.8125 19.125 C15.13574219 18.78533203 14.45898438 18.44566406 13.76171875 18.09570312 C9.64294827 15.97574773 5.80613465 13.64002497 2 11 C1.63648438 12.08087891 1.63648438 12.08087891 1.265625 13.18359375 C-1.80411681 20.01471674 -8.27908209 26.63954105 -15 30 C-17.875 30.25 -17.875 30.25 -20 30 C-20.33 29.34 -20.66 28.68 -21 28 C-19.989375 27.62875 -18.97875 27.2575 -17.9375 26.875 C-8.75813572 22.82201456 -4.63425668 16.19614274 -1 7 C-0.3798869 4.56442421 -0.11447629 2.5184784 0 0 Z " fill="#E48482" transform="translate(287,103)"/>
<path d="M0 0 C7.40315583 1.79354806 14.72764611 3.73141173 22 6 C20.5438788 7.99973977 19.07185881 9.9822862 17.56640625 11.9453125 C16.39993221 13.47540064 15.28070712 15.04173452 14.1875 16.625 C12 18 12 18 8.125 17.5 C6.41006089 17.02314926 4.70262049 16.51912065 3 16 C1.12303108 15.47278381 -0.75395075 14.94561199 -2.63134766 14.41992188 C-5.42616931 13.63129458 -8.21324571 12.81660225 -11 12 C-10.24332031 11.42765625 -9.48664063 10.8553125 -8.70703125 10.265625 C-6.2521031 8.21099538 -4.53967985 6.334437 -2.6875 3.75 C-1.91986328 2.69039062 -1.91986328 2.69039062 -1.13671875 1.609375 C-0.76160156 1.07828125 -0.38648438 0.5471875 0 0 Z " fill="#F8FBFC" transform="translate(320,203)"/>
<path d="M0 0 C1.65 0.99 3.3 1.98 5 3 C1.95771099 14.81812268 -2.18202138 25.27355307 -8 36 C-9.32 36 -10.64 36 -12 36 C-13 35 -13 35 -13.29296875 31.390625 C-13.23147708 26.86241905 -11.61350402 23.57321456 -9.3125 19.75 C-8.57501457 18.45432455 -7.84198585 17.15610292 -7.11328125 15.85546875 C-6.75314941 15.21399902 -6.39301758 14.5725293 -6.02197266 13.91162109 C-3.63580832 9.44825111 -1.82576427 4.71363179 0 0 Z " fill="#E38481" transform="translate(355,306)"/>
<path d="M0 0 C4.94942337 0.23948823 8.29999334 0.45416029 12 4 C11.125 8.875 11.125 8.875 10 10 C8.35130683 9.96219927 6.70405968 9.84529698 5.0625 9.6875 C4.16660156 9.60886719 3.27070313 9.53023437 2.34765625 9.44921875 C0 9 0 9 -2 7 C-2.25 4.5 -2.25 4.5 -2 2 C-1.34 1.34 -0.68 0.68 0 0 Z " fill="#E88884" transform="translate(283,139)"/>
<path d="M0 0 C0 2.97 0 5.94 0 9 C-0.33 8.34 -0.66 7.68 -1 7 C-2.0828125 7.495 -2.0828125 7.495 -3.1875 8 C-6.07255039 9.02579569 -7.97254276 9.40911584 -11 9 C-13 6 -13 6 -12.9375 4 C-10.24925469 -1.73492333 -5.43952809 -1.17323155 0 0 Z " fill="#E08482" transform="translate(320,140)"/>
</svg>
